#!OML:ASF E:\Mandelcareful walks\Project 1\Capture day 1\Session 1\Subject1.ASF
:FULLY-SPECIFIED
:DEGREES
237
root -5.98121 12.7647 -0.776364 160.298 68.6653 137.118
lowerback 45.6391 -2.95332 8.36679
upperback 9.76644 2.0156 -1.01798
thorax -9.79608 1.63952 -6.38807
lowerneck -27.5575 -13.0293 -11.2587
upperneck 17.3014 -15.3112 7.59193
head 11.5631 -6.78626 1.70493
rclavicle 6.36111e-014 6.52014e-014
rhumerus 59.8521 -18.7088 -85.4244
rradius 25.5305
rwrist -24.2501
rhand -12.9474 -45.1752
rfingers 7.12502
rthumb 13.1439 -74.741
lclavicle 6.36111e-014 6.52014e-014
lhumerus -27.1957 -22.0833 93.1035
lradius 46.4314
lwrist 29.2534
lhand -23.8945 -13.0804
lfingers 7.12502
lthumb 2.57928 16.8838
rfemur -74.6133 -44.9364 3.15783
rtibia 95.1006
rfoot -27.811 0.639708
rtoes -13.629
lfemur -77.676 -5.65656 -31.209
ltibia 91.6627
lfoot -31.2941 3.78991
ltoes -1.76908
238
root -5.97782 12.7639 -0.77876 160.137 68.9202 137.055
lowerback 45.7378 -3.04298 8.40675
upperback 9.69542 1.93307 -0.978066
thorax -9.91223 1.58873 -6.33123
lowerneck -27.3369 -13.0128 -11.38
upperneck 17.1454 -15.2994 7.75259
head 11.4919 -6.77897 1.79402
rclavicle -1.145e-013 -3.18055e-014
rhumerus 58.0731 -17.5926 -83.0496
rradius 27.4038
rwrist -27.2964
rhand -13.227 -44.883
rfingers 7.12502
rthumb 12.8744 -74.4659
lclavicle -1.145e-013 -3.18055e-014
lhumerus -27.301 -22.0161 93.1265
lradius 46.2585
lwrist 29.3361
lhand -23.9904 -13.5723
lfingers 7.12502
lthumb 2.48661 16.393
rfemur -74.5803 -44.6588 3.26051
rtibia 95.0299
rfoot -27.9056 0.526407
rtoes -13.7272
lfemur -77.5851 -5.58832 -31.0392
ltibia 91.7488
lfoot -31.4045 4.01875
ltoes -2.1583
239
root -5.97402 12.7655 -0.778583 159.902 69.2541 136.888
lowerback 45.7704 -3.0893 8.37344
upperback 9.6903 1.86305 -0.95862
thorax -9.93726 1.55352 -6.26213
lowerneck -27.3358 -12.9529 -11.3619
upperneck 17.1991 -15.2321 7.76472
head 11.5056 -6.74499 1.80945
rclavicle 6.36111e-015 -2.54444e-014
rhumerus 56.2178 -16.5276 -81.0261
rradius 29.9236
rwrist -30.4273
rhand -13.1202 -44.3645
rfingers 7.12502
rthumb 12.9773 -73.9409
lclavicle 6.36111e-015 -2.54444e-014
lhumerus -27.2902 -22.3355 93.1132
lradius 46.1819
lwrist 29.512
lhand -24.2617 -13.1765
lfingers 7.12502
lthumb 2.22463 16.7917
rfemur -74.549 -44.2901 3.3205
rtibia 95.0473
rfoot -28.0453 0.959832
rtoes -12.9062
lfemur -77.5637 -5.39354 -30.8813
ltibia 91.8615
lfoot -31.5298 4.18307
ltoes -2.76703
240
root -5.97147 12.7684 -0.780284 159.757 69.5406 136.783
lowerback 45.6872 -3.10672 8.33404
upperback 9.73139 1.829 -0.844496
thorax -9.87557 1.53923 -6.09897
lowerneck -27.4381 -12.9095 -11.4159
upperneck 17.3332 -15.1367 7.7222
head 11.5649 -6.70456 1.81589
rclavicle -7.63333e-014 -4.29375e-014
rhumerus 54.6658 -15.5738 -79.0656
rradius 32.2019
rwrist -33.3401
rhand -12.601 -44.1429
rfingers 7.12502
rthumb 13.4778 -73.6868
lclavicle -7.63333e-014 -4.29375e-014
lhumerus -27.174 -22.7367 93.2089
lradius 46.1121
lwrist 29.5412
lhand -24.199 -12.2822
lfingers 7.12502
lthumb 2.28514 17.6854
rfemur -74.5669 -44.0011 3.39131
rtibia 95.0621
rfoot -27.9548 1.21682
rtoes -12.0435
lfemur -77.5874 -5.2612 -30.7378
ltibia 91.9446
lfoot -31.6249 4.32669
ltoes -3.3889
241
root -5.97022 12.7701 -0.785574 159.61 69.6994 136.685
lowerback 45.5345 -3.15563 8.40579
upperback 9.82234 1.806 -0.737339
thorax -9.73209 1.5382 -6.00224
lowerneck -27.8463 -12.9238 -11.3865
upperneck 17.6547 -15.0838 7.51191
head 11.7281 -6.68538 1.72529
rclavicle -6.99722e-014 -1.27222e-014
rhumerus 53.5151 -15.08 -77.5552
rradius 34.1522
rwrist -35.3527
rhand -13.675 -43.0339
rfingers 7.12502
rthumb 12.4425 -72.6435
lclavicle -6.99722e-014 -1.27222e-014
lhumerus -26.8689 -23.048 93.2147
lradius 45.8134
lwrist 29.8516
lhand -23.2176 -13.0899
lfingers 7.12502
lthumb 3.23297 16.8654
rfemur -74.5735 -43.8936 3.40409
rtibia 95.0389
rfoot -27.7324 1.18391
rtoes -12.002
lfemur -77.5741 -5.2759 -30.6496
ltibia 92.0129
lfoot -31.7539 4.50744
ltoes -3.64263
242
root -5.96985 12.7692 -0.791065 159.41 69.8199 136.569
lowerback 45.4459 -3.23853 8.50077
upperback 9.82815 1.74353 -0.684358
thorax -9.706 1.50815 -5.96317
lowerneck -28.0346 -12.791 -11.1069
upperneck 17.8911 -14.8885 7.08968
head 11.7677 -6.62325 1.56345
rclavicle -2.8625e-014 -7.95139e-015
rhumerus 52.6309 -14.8761 -76.6954
rradius 35.639
rwrist -36.3199
rhand -13.3768 -42.0524
rfingers 7.12502
rthumb 12.73 -71.6444
lclavicle -2.8625e-014 -7.95139e-015
lhumerus -26.8142 -23.4812 93.2753
lradius 46.0394
lwrist 29.5337
lhand -23.3187 -11.8393
lfingers 7.12502
lthumb 3.13532 18.1174
rfemur -74.5667 -43.8681 3.38028
rtibia 95.0435
rfoot -27.5821 1.19231
rtoes -12.6286
lfemur -77.4923 -5.30311 -30.6045
ltibia 92.0834
lfoot -31.9267 4.73062
ltoes -3.78232
243
root -5.97012 12.7652 -0.795336 159.009 69.9821 136.179
lowerback 45.4163 -3.21516 8.54778
upperback 9.68354 1.7714 -0.626088
thorax -9.85781 1.49411 -5.93953
lowerneck -27.6322 -12.6876 -11.1209
upperneck 17.8105 -14.7467 6.96974
head 11.6452 -6.5902 1.57035
rclavicle -1.59028e-014 2.22639e-014
rhumerus 51.8461 -14.8565 -75.8847
rradius 36.4209
rwrist -36.9106
rhand -13.334 -43.2771
rfingers 7.12502
rthumb 12.7712 -72.8665
lclavicle -1.59028e-014 2.22639e-014
lhumerus -27.0114 -23.9214 93.4773
lradius 46.0744
lwrist 29.019
lhand -23.3421 -12.9537
lfingers 7.12502
lthumb 3.11272 17.0033
rfemur -74.7583 -43.8225 3.3945
rtibia 95.1003
rfoot -27.4699 1.30551
rtoes -12.8978
lfemur -77.473 -5.27183 -30.6148
ltibia 92.1567
lfoot -31.9724 4.98507
ltoes -3.70841
244
root -5.97153 12.7587 -0.800511 158.344 70.1683 135.432
lowerback 45.2971 -3.07699 8.63133
upperback 9.65756 1.94966 -0.578023
thorax -9.8294 1.56453 -6.00644
lowerneck -27.7178 -12.8574 -11.3557
upperneck 17.8617 -14.8922 7.01838
head 11.7161 -6.66029 1.58529
rclavicle -1.27222e-013 -6.04305e-014
rhumerus 51.582 -15.3811 -75.2644
rradius 36.5741
rwrist -37.1095
rhand -13.2573 -43.8206
rfingers 7.12502
rthumb 12.8452 -73.4054
lclavicle -1.27222e-013 -6.04305e-014
lhumerus -26.9054 -24.5649 93.6236
lradius 46.302
lwrist 28.9527
lhand -22.791 -13.1178
lfingers 7.12502
lthumb 3.64496 16.8307
rfemur -75.1312 -43.7659 3.41857
rtibia 95.1572
rfoot -27.3786 1.55251
rtoes -12.9149
lfemur -77.576 -5.19002 -30.6937
ltibia 92.2338
lfoot -31.9883 5.10848
ltoes -3.17593
245
root -5.97412 12.7525 -0.808619 157.524 70.3545 134.562
lowerback 45.1409 -2.95699 8.65155
upperback 9.69147 2.08471 -0.50217
thorax -9.73162 1.62473 -5.98929
lowerneck -27.8734 -12.9273 -11.5336
upperneck 17.8595 -14.8733 6.93946
head 11.7459 -6.66845 1.57922
rclavicle 1.24042e-013 7.79236e-014
rhumerus 51.8477 -16.0294 -75.1199
rradius 36.2134
rwrist -36.8366
rhand -13.5781 -43.8405
rfingers 7.12502
rthumb 12.5359 -73.4445
lclavicle 1.24042e-013 7.79236e-014
lhumerus -26.8152 -24.8548 93.7082
lradius 46.6536
lwrist 29.0067
lhand -22.0528 -12.2073
lfingers 7.12502
lthumb 4.35782 17.7278
rfemur -75.3867 -43.7265 3.39415
rtibia 95.1607
rfoot -27.3274 1.80875
rtoes -12.8171
lfemur -77.6448 -5.06714 -30.8319
ltibia 92.3021
lfoot -32.1656 5.09166
ltoes -3.27269
246
root -5.97857 12.7478 -0.818517 156.579 70.5484 133.587
lowerback 44.9921 -2.87821 8.66871
upperback 9.72563 2.16322 -0.474035
thorax -9.64209 1.66071 -5.99802
lowerneck -27.9123 -12.906 -11.7304
upperneck 17.7281 -14.7417 6.91485
head 11.7028 -6.62652 1.62696
rclavicle 0 5.88403e-014
rhumerus 52.4204 -16.8557 -75.6678
rradius 35.4976
rwrist -35.851
rhand -13.7408 -43.4137
rfingers 7.12502
rthumb 12.379 -73.0272
lclavicle 0 5.88403e-014
lhumerus -26.684 -24.8901 93.7198
lradius 46.9059
lwrist 28.8194
lhand -22.4259 -12.1544
lfingers 7.12502
lthumb 3.99747 17.7878
rfemur -75.5514 -43.6904 3.3372
rtibia 95.1103
rfoot -27.2875 2.1059
rtoes -12.0383
lfemur -77.6662 -4.89524 -31.0446
ltibia 92.3597
lfoot -32.3269 5.14075
ltoes -3.80203
247
root -5.98531 12.7426 -0.825704 155.547 70.7902 132.501
lowerback 44.8795 -2.73393 8.95103
upperback 9.74201 2.40564 -0.654719
thorax -9.54205 1.77116 -6.44032
lowerneck -27.8407 -12.9869 -11.594
upperneck 17.5161 -14.9039 6.9137
head 11.6131 -6.69657 1.57933
rclavicle 6.36111e-015 5.88403e-014
rhumerus 52.9049 -18.4864 -76.8415
rradius 34.821
rwrist -34.2246
rhand -13.3677 -44.0051
rfingers 7.12502
rthumb 12.7387 -73.5965
lclavicle 6.36111e-015 5.88403e-014
lhumerus -26.4317 -25.3999 93.4959
lradius 47.0301
lwrist 28.8645
lhand -23.3382 -13.7598
lfingers 7.12502
lthumb 3.11648 16.1971
rfemur -75.8453 -43.5831 3.3852
rtibia 95.0266
rfoot -27.3211 2.39605
rtoes -11.5662
lfemur -77.7255 -4.6219 -31.2692
ltibia 92.4214
lfoot -32.4033 5.18444
ltoes -3.84986
248
root -5.99349 12.7393 -0.830553 154.344 71.096 131.267
lowerback 44.8712 -2.61999 8.85518
upperback 9.74151 2.48681 -0.64303
thorax -9.5346 1.80302 -6.41368
lowerneck -27.9549 -12.8724 -11.7036
upperneck 17.4274 -14.6377 6.76313
head 11.5674 -6.60129 1.59425
rclavicle -1.27222e-014 4.92986e-014
rhumerus 53.6256 -19.1273 -77.4498
rradius 33.7137
rwrist -33.6605
rhand -14.1076 -44.475
rfingers 7.12502
rthumb 12.0253 -74.1095
lclavicle -1.27222e-014 4.92986e-014
lhumerus -26.1928 -24.822 93.3463
lradius 47.3234
lwrist 29.1464
lhand -23.6871 -14.5383
lfingers 7.12502
lthumb 2.77951 15.4234
rfemur -76.1757 -43.2993 3.49639
rtibia 94.8998
rfoot -27.3296 2.30254
rtoes -12.0676
lfemur -77.7669 -4.24689 -31.4906
ltibia 92.4762
lfoot -32.4987 5.22007
ltoes -3.79034
249
root -6.00109 12.7393 -0.835093 153.154 71.4149 130.037
lowerback 44.876 -2.45914 8.7973
upperback 9.71152 2.62936 -0.688864
thorax -9.55255 1.85884 -6.49703
lowerneck -28.1767 -12.7498 -11.5671
upperneck 17.5092 -14.4414 6.54746
head 11.5865 -6.52412 1.52853
rclavicle -4.45278e-014 7.63333e-014
rhumerus 54.6474 -20.0106 -78.2858
rradius 31.7621
rwrist -33.1643
rhand -15.2552 -43.7774
rfingers 7.12502
rthumb 10.9186 -73.4735
lclavicle -4.45278e-014 7.63333e-014
lhumerus -26.0245 -24.619 93.1452
lradius 47.7205
lwrist 29.8085
lhand -23.8209 -14.7443
lfingers 7.12502
lthumb 2.65034 15.219
rfemur -76.4749 -42.8732 3.56905
rtibia 94.7857
rfoot -27.2422 2.0062
rtoes -12.6276
lfemur -77.7989 -3.88324 -31.6842
ltibia 92.5163
lfoot -32.4874 5.42748
ltoes -3.82445
250
root -6.00584 12.7398 -0.837769 152.153 71.7453 128.928
lowerback 44.7272 -2.26736 8.70743
upperback 9.7155 2.78223 -0.692493
thorax -9.49165 1.92314 -6.51855
lowerneck -28.3836 -12.6535 -11.4982
upperneck 17.624 -14.2798 6.40968
head 11.6323 -6.45705 1.49298
rclavicle 1.01778e-013 1.20861e-013
rhumerus 55.9732 -21.2016 -80.0968
rradius 29.9756
rwrist -31.2982
rhand -15.5597 -47.67
rfingers 7.12502
rthumb 10.6249 -77.3814
lclavicle 1.01778e-013 1.20861e-013
lhumerus -25.8524 -24.355 92.992
lradius 47.92
lwrist 30.3127
lhand -24.3057 -14.2897
lfingers 7.12502
lthumb 2.18214 15.6788
rfemur -76.8877 -42.435 3.7268
rtibia 94.7262
rfoot -27.2711 1.86479
rtoes -12.6013
lfemur -77.9173 -3.52406 -31.8083
ltibia 92.5534
lfoot -32.2681 5.7677
ltoes -3.95209
251
root -6.00723 12.7391 -0.84093 151.487 71.9789 128.18
lowerback 44.4734 -2.17583 8.62101
upperback 9.76704 2.82632 -0.606169
thorax -9.36511 1.94512 -6.3927
lowerneck -28.4015 -12.513 -11.562
upperneck 17.5802 -14.0315 6.32892
head 11.5937 -6.36043 1.52564
rclavicle 8.90555e-014 1.20861e-013
rhumerus 56.9367 -21.8986 -81.4313
rradius 29.0029
rwrist -30.019
rhand -15.0636 -47.259
rfingers 7.12502
rthumb 11.1034 -76.9453
lclavicle 8.90555e-014 1.20861e-013
lhumerus -25.5853 -23.6161 92.9117
lradius 47.9186
lwrist 30.4879
lhand -24.5795 -13.5521
lfingers 7.12502
lthumb 1.91773 16.419
rfemur -77.1649 -42.168 3.8754
rtibia 94.68
rfoot -27.4176 1.82509
rtoes -11.99
lfemur -78.0145 -3.28323 -31.8824
ltibia 92.5853
lfoot -32.1198 6.01871
ltoes -4.10443
